<?xml version="1.0" standalone="no"?>
<!DOCTYPE svg PUBLIC "-//W3C//DTD SVG 20010904//EN"
 "http://www.w3.org/TR/2001/REC-SVG-20010904/DTD/svg10.dtd">
<svg version="1.0" xmlns="http://www.w3.org/2000/svg"
 width="1000.000000pt" height="1000.000000pt" viewBox="0 0 1000.000000 1000.000000"
 preserveAspectRatio="xMidYMid meet">
<metadata>
Created by potrace 1.11, written by Peter Selinger 2001-2013
</metadata>
<g transform="translate(0.000000,1000.000000) scale(0.100000,-0.100000)"
fill="#000000" stroke="none">
<path d="M5699 9846 c-2 -2 -49 -6 -104 -10 -107 -7 -144 -11 -270 -27 -128
-17 -148 -20 -340 -54 -70 -12 -309 -70 -424 -102 -423 -117 -918 -324 -1295
-542 -49 -28 -90 -51 -92 -51 -14 0 -472 -303 -535 -354 -15 -12 -39 -30 -54
-41 -132 -94 -415 -332 -415 -349 0 -20 64 -225 90 -291 4 -11 23 -58 41 -105
85 -220 275 -545 415 -710 89 -105 127 -145 203 -220 212 -207 418 -354 686
-490 72 -36 144 -71 160 -77 17 -7 50 -21 75 -31 114 -48 370 -126 485 -148
22 -4 42 -8 45 -9 3 -1 30 -5 60 -9 30 -5 64 -10 75 -13 45 -9 673 -14 1940
-13 1202 0 1838 3 3073 10 l382 3 -6 81 c-3 44 -7 95 -9 111 -1 17 -6 59 -9
95 -4 36 -9 72 -11 80 -3 8 -9 44 -14 80 -87 567 -312 1127 -644 1600 -226
322 -522 621 -849 856 -231 167 -542 336 -793 434 -60 23 -119 46 -130 51
-154 66 -570 169 -830 204 -22 3 -53 7 -70 10 -16 2 -57 7 -90 10 -33 3 -85 8
-115 11 -61 7 -625 15 -631 10z"/>
<path d="M1113 7111 c-28 -42 -66 -101 -84 -131 -18 -30 -37 -56 -41 -58 -4
-2 -8 -8 -8 -13 0 -5 -16 -33 -35 -63 -19 -30 -35 -57 -35 -59 0 -2 -23 -44
-50 -92 -120 -207 -306 -617 -386 -849 -35 -100 -77 -231 -74 -231 1 0 -5 -18
-14 -40 -34 -88 -134 -515 -151 -645 -3 -25 -8 -56 -11 -70 -6 -31 -12 -78
-19 -150 -3 -30 -8 -62 -10 -70 -26 -99 -26 -794 0 -970 2 -14 7 -50 10 -80 6
-48 18 -124 40 -250 3 -19 11 -55 16 -80 6 -25 12 -54 15 -65 2 -11 15 -63 29
-115 14 -52 30 -115 37 -139 l11 -44 24 29 c13 16 27 34 31 39 128 173 332
374 587 578 124 99 356 253 526 350 126 72 439 229 439 220 0 -3 6 -1 13 5 17
15 270 113 405 158 331 110 660 186 997 229 172 22 192 24 275 30 41 3 93 8
115 12 22 3 1361 7 2975 8 1614 2 2940 4 2947 4 11 1 30 53 48 127 3 11 14 55
25 99 11 44 23 93 26 109 2 16 6 32 8 35 2 3 7 23 10 43 3 21 10 57 15 80 6
24 13 66 16 93 4 28 8 57 10 65 2 8 7 38 10 65 4 28 8 57 10 65 5 17 16 118
20 166 l2 31 -2836 0 c-2488 0 -3114 3 -3188 17 -10 2 -52 7 -93 10 -41 4 -91
9 -110 11 -71 9 -136 17 -155 21 -11 2 -40 7 -65 10 -51 7 -304 59 -365 76
-22 5 -44 11 -50 12 -85 19 -331 101 -467 157 -362 149 -658 340 -909 589
-219 216 -363 426 -447 648 l-38 99 -51 -76z"/>
<path d="M4369 3886 c-2 -2 -74 -7 -159 -10 -85 -3 -168 -8 -185 -10 -16 -2
-55 -7 -85 -10 -30 -4 -111 -18 -180 -32 -503 -100 -989 -300 -1450 -597 -63
-41 -240 -165 -250 -177 -3 -3 -30 -24 -60 -47 -30 -23 -64 -50 -75 -60 -11
-10 -33 -28 -49 -41 -81 -62 -276 -250 -409 -395 -81 -87 -125 -138 -235 -272
-54 -66 -151 -197 -229 -311 l-90 -131 21 -29 c161 -228 458 -525 731 -730
353 -266 793 -482 1240 -608 204 -58 477 -113 645 -131 30 -4 69 -8 85 -10
141 -20 633 -27 845 -13 124 9 398 42 440 53 8 2 38 7 65 10 41 6 235 48 435
94 149 35 574 177 705 236 17 7 80 35 140 60 113 49 353 166 460 224 198 109
496 296 645 405 139 101 171 126 265 200 199 159 359 301 534 477 363 364 625
694 913 1149 98 156 252 446 338 636 l28 62 -56 1 c-118 4 -5020 10 -5023 7z"/>
</g>
</svg>
